# xmcd
#
# Track frame offsets:
# 150
# 11875
# 30097
# 39265
# 50107
# 59952
# 73125
# 84637
# 101705
# 113792
# 127822
# 142420
#
# Disc length: 2060 seconds
#
#
# Revision: 0
# Processed by: cddbd v1.5.1PL0 Copyright (c) Steve Scherf et al.
# Submitted via: FreeRIP 2.20 
#
DISCID=b0080a0c
DTITLE=Brook Benton - Endlessly vol.3
DYEAR=1900
DGENRE=Rhythmic Soul
TTITLE0=Hotel Happiness
TTITLE1=Rainy Night In Georgia
TTITLE2=Shadrack
TTITLE3=I Do
TTITLE4=Lie To Me
TTITLE5=I Got What I Wanted
TTITLE6=My True Confession
TTITLE7=When A Child Is Born
TTITLE8=You Should Have Told Me
TTITLE9=Give Me A Sign
TTITLE10=Tell Me
TTITLE11=Love Made Me Your Fool
EXTD=
EXTT0=
EXTT1=
EXTT2=
EXTT3=
EXTT4=
EXTT5=
EXTT6=
EXTT7=
EXTT8=
EXTT9=
EXTT10=
EXTT11=
PLAYORDER=
